<svg width="14" height="14" viewBox="0 0 14 14" fill="none" xmlns="http://www.w3.org/2000/svg">
<path fill-rule="evenodd" clip-rule="evenodd" d="M10.1102 0.340386C11.0692 0.280448 12.0149 0.613437 12.7275 1.2661C13.3802 1.97869 13.7131 2.92438 13.6599 3.89005V10.1103C13.7198 11.0759 13.3802 12.0216 12.7341 12.7342C12.0215 13.3869 11.0692 13.7199 10.1102 13.6599H3.88989C2.92422 13.7199 1.97852 13.3869 1.26592 12.7342C0.613256 12.0216 0.280265 11.0759 0.340203 10.1103V3.89005C0.280265 2.92438 0.613256 1.97869 1.26592 1.2661C1.97852 0.613437 2.92422 0.280448 3.88989 0.340386H10.1102ZM6.32073 10.2302L10.8028 5.73481C11.209 5.3219 11.209 4.65592 10.8028 4.24968L9.93702 3.3839C9.52411 2.971 8.85813 2.971 8.44522 3.3839L7.99901 3.83677C7.93241 3.90337 7.93241 4.01658 7.99901 4.08318C7.99901 4.08318 9.05792 5.13543 9.0779 5.16206C9.15116 5.24198 9.19778 5.34854 9.19778 5.46841C9.19778 5.70817 9.00464 5.90796 8.75823 5.90796C8.64501 5.90796 8.53845 5.86134 8.4652 5.78808L7.353 4.68256C7.29973 4.62928 7.20649 4.62928 7.15321 4.68256L3.97647 7.85927C3.7567 8.07905 3.63016 8.37208 3.6235 8.68509L3.58354 10.2635C3.58354 10.35 3.61018 10.4299 3.67012 10.4899C3.73006 10.5498 3.80997 10.5831 3.89655 10.5831H5.46161C5.78128 10.5831 6.08764 10.4566 6.32073 10.2302Z" fill="white"/>
</svg>
