<svg width="14" height="14" viewBox="0 0 14 14" fill="none" xmlns="http://www.w3.org/2000/svg">
<path d="M5.08993 12.8491V10.8106C5.08993 10.2902 5.51486 9.86837 6.03904 9.86837H7.95515C8.20687 9.86837 8.44828 9.96764 8.62627 10.1443C8.80427 10.321 8.90426 10.5607 8.90426 10.8106V12.8491C8.90267 13.0654 8.98812 13.2734 9.14166 13.4269C9.2952 13.5805 9.50411 13.6668 9.72204 13.6668H11.0293C11.6398 13.6684 12.2259 13.4287 12.6582 13.0007C13.0905 12.5727 13.3334 11.9915 13.3334 11.3854V5.57807C13.3334 5.08847 13.1148 4.62406 12.7365 4.30994L8.28943 0.784075C7.51585 0.165871 6.40749 0.185831 5.65701 0.831482L1.31142 4.30994C0.915242 4.6148 0.67845 5.08059 0.666748 5.57807V11.3795C0.666748 12.6427 1.69834 13.6668 2.97086 13.6668H4.24827C4.7009 13.6668 5.06875 13.3043 5.07203 12.855L5.08993 12.8491Z" fill="#00A7AA"/>
</svg>
