<svg width="15" height="14" viewBox="0 0 15 14" fill="none" xmlns="http://www.w3.org/2000/svg">
<path d="M11.4457 8.5465C11.273 8.71384 11.1937 8.95584 11.233 9.19317L11.8257 12.4732C11.8757 12.7512 11.7583 13.0325 11.5257 13.1932C11.2977 13.3598 10.9943 13.3798 10.7457 13.2465L7.79299 11.7065C7.69032 11.6518 7.57632 11.6225 7.45965 11.6192H7.27899C7.21632 11.6285 7.15499 11.6485 7.09899 11.6792L4.14565 13.2265C3.99965 13.2998 3.83432 13.3258 3.67232 13.2998C3.27765 13.2252 3.01432 12.8492 3.07899 12.4525L3.67232 9.1725C3.71165 8.93317 3.63232 8.68984 3.45965 8.51984L1.05232 6.1865C0.850986 5.99117 0.780986 5.69784 0.872986 5.43317C0.962319 5.16917 1.19032 4.9765 1.46565 4.93317L4.77899 4.4525C5.03099 4.4265 5.25232 4.27317 5.36565 4.0465L6.82565 1.05317C6.86032 0.986504 6.90499 0.925171 6.95899 0.873171L7.01899 0.826504C7.05032 0.791837 7.08632 0.763171 7.12632 0.739837L7.19899 0.713171L7.31232 0.666504H7.59299C7.84365 0.692504 8.06432 0.842504 8.17965 1.0665L9.65899 4.0465C9.76565 4.2645 9.97299 4.41584 10.2123 4.4525L13.5257 4.93317C13.8057 4.97317 14.0397 5.1665 14.1323 5.43317C14.2197 5.7005 14.1443 5.99384 13.939 6.1865L11.4457 8.5465Z" fill="white"/>
</svg>
